<svg width="80" height="80" viewBox="0 0 80 80" fill="none" xmlns="http://www.w3.org/2000/svg">
<path d="M72 40C72 57.6731 57.6731 72 40 72C22.3269 72 8 57.6731 8 40C8 22.3269 22.3269 8 40 8C57.6731 8 72 22.3269 72 40Z" fill="#E7ECF0"/>
<path d="M18 31C18 23.8203 23.8203 18 31 18H49C56.1797 18 62 23.8203 62 31V49C62 56.1797 56.1797 62 49 62H31C23.8203 62 18 56.1797 18 49V31Z" fill="#18293D"/>
<path fill-rule="evenodd" clip-rule="evenodd" d="M32.5197 33.3141L34.648 31L37 32.987L34.7242 35.4614L36.9332 37.5811L34.7148 39.7046L32.6468 37.7201L30.55 40L28.198 38.013L30.4268 35.5897L28 33.261L30.2103 31.1299L32.5197 33.3141Z" fill="white"/>
<path fill-rule="evenodd" clip-rule="evenodd" d="M47.5197 33.3141L49.648 31L52 32.987L49.7242 35.4614L51.9332 37.5811L49.7148 39.7046L47.6468 37.7201L45.55 40L43.198 38.013L45.4268 35.5897L43 33.261L45.2103 31.1299L47.5197 33.3141Z" fill="white"/>
<path fill-rule="evenodd" clip-rule="evenodd" d="M49 50H31V47H49V50Z" fill="white"/>
</svg>
