<svg width="80" height="80" viewBox="0 0 80 80" fill="none" xmlns="http://www.w3.org/2000/svg">
<path d="M72 40C72 57.6731 57.6731 72 40 72C22.3269 72 8 57.6731 8 40C8 22.3269 22.3269 8 40 8C57.6731 8 72 22.3269 72 40Z" fill="#E7ECF0"/>
<circle cx="40.0003" cy="39.9986" r="10.8466" transform="rotate(-60 40.0003 39.9986)" fill="#E7ECF0"/>
<path d="M20.1898 36.8521L18.6114 45.8708C18.5307 46.3323 18.7794 46.7991 19.2337 46.9136C22.7022 47.7876 25.6967 44.731 26.009 40.7173C26.0413 40.3015 26.2947 39.9269 26.6853 39.7807L30.8969 38.2046C31.0984 38.1291 31.3192 38.1197 31.5246 38.184C36.3527 39.6968 40.4783 43.6166 39.7708 48.5545C39.0479 53.6003 33.3204 54.1809 30.3732 53.5173C27.426 52.8538 27.9542 49.2306 23.4918 47.6823C20.5647 46.6667 19.2071 47.305 18.435 48.058C18.1482 48.3377 18.1267 48.7812 18.3282 49.1275C20.007 52.0125 23.1479 56.7273 24.5206 58.2992C26.3556 60.4004 27.3565 61.1746 29.9006 61.7828C31.9358 62.2694 38.4502 63.2574 41.453 63.9394H66.671V45.8035H57.7738L45.0593 10.8109C44.9011 10.3756 44.4563 10.0866 44.0197 10.2412C42.6599 10.7229 42.0785 12.0465 42.0785 14.076L39.4662 7.67615C39.2937 7.25346 38.8488 6.98419 38.4188 7.13772C36.0992 7.96597 36.2954 10.8899 36.2954 12.8042L33.6059 6.66455C33.4218 6.24414 32.9695 5.99169 32.5342 6.13708C28.7662 7.39549 29.0503 12.6671 29.9006 15.3206C30.6235 17.5767 33.7977 26.9144 35.2945 31.3012L31.6947 30.0099C30.5597 29.6027 29.3017 29.7293 28.2706 30.3543L22.0565 34.121C21.0693 34.7193 20.3888 35.715 20.1898 36.8521Z" fill="white"/>
<path fill-rule="evenodd" clip-rule="evenodd" d="M33.1476 6.86559C33.0466 6.63506 32.8364 6.56359 32.6922 6.61175C31.0536 7.15898 30.2564 8.57748 29.9787 10.2863C29.7001 12.0001 29.9701 13.9006 30.3763 15.1684C31.0878 17.3887 34.1852 26.5021 35.7064 30.9615C36.136 31.2108 36.7412 31.5866 37.3428 32.0091C37.8627 32.3743 38.4031 32.7904 38.8247 33.2014C39.0224 33.3941 38.9949 33.71 38.7834 33.8876C38.5719 34.0652 38.2558 34.0378 38.0548 33.8484C37.7062 33.5199 37.2491 33.1653 36.768 32.8274C36.1329 32.3813 35.4918 31.9889 35.0851 31.7578L31.5254 30.4809C30.5324 30.1247 29.4316 30.2354 28.5294 30.7823L22.3153 34.549C21.4515 35.0726 20.8561 35.9438 20.6819 36.9387L19.1035 45.9574C19.0595 46.2089 19.1997 46.3899 19.3555 46.4292C20.9029 46.8191 22.3473 46.3402 23.4607 45.2857C24.5818 44.224 25.3624 42.5771 25.5101 40.6789C25.5557 40.0921 25.9164 39.5349 26.5097 39.3128L30.7212 37.7367C31.0217 37.6243 31.3568 37.608 31.6737 37.7073C36.5989 39.2505 40.8138 43.2588 40.0546 48.5582C39.6611 51.3046 38.098 52.9064 36.0778 53.6468C34.0822 54.3782 31.8138 54.3547 30.263 54.0055C28.7008 53.6538 27.9719 52.5509 27.2767 51.4989C27.2128 51.4022 27.1492 51.306 27.0852 51.2108C26.3158 50.0652 25.4087 48.8772 23.3275 48.1551C21.9136 47.6645 20.9286 47.5912 20.233 47.7012C19.5495 47.8092 19.1083 48.0998 18.7838 48.4164C18.6908 48.507 18.6515 48.69 18.7599 48.8764C20.4348 51.7545 23.5564 56.4358 24.8968 57.9707C25.8094 59.0157 26.4824 59.692 27.2218 60.1854C27.9533 60.6735 28.7781 61.0009 30.0165 61.2969C30.971 61.5252 32.9478 61.8691 35.1039 62.2443L35.3993 62.2957C37.6256 62.6831 39.9892 62.6081 41.5085 62.9502H66.1706V45.9502H57.4231L44.589 10.9821C44.548 10.8693 44.4719 10.7836 44.3931 10.738C44.3196 10.6955 44.2513 10.6899 44.1863 10.713C43.6364 10.9077 43.249 11.2646 42.988 11.7983C42.7272 12.3316 42.5868 13.0561 42.5785 13.988L47.7119 27.8663C47.8077 28.1253 47.6754 28.4129 47.4165 28.5087C47.1575 28.6045 46.8698 28.4722 46.774 28.2132L41.6121 14.2577L39.0029 7.86553C38.9583 7.75626 38.8808 7.67438 38.8007 7.63099C38.7252 7.59014 38.6538 7.585 38.5866 7.60902C37.6489 7.94384 37.1948 8.69283 36.9747 9.67356C36.7813 10.5356 36.7875 11.4934 36.7931 12.3742C36.7938 12.4861 36.7945 12.5968 36.7948 12.7059L43.7417 29.6827C43.8463 29.9383 43.7239 30.2302 43.4683 30.3348C43.2128 30.4394 42.9208 30.317 42.8162 30.0614L35.8345 12.9996L33.1476 6.86559ZM35.8407 10.5213L34.0635 6.46435C33.7962 5.85406 33.1019 5.42062 32.3754 5.66325C30.246 6.37442 29.3013 8.22091 28.9916 10.1259C28.6828 12.0258 28.98 14.0879 29.424 15.4736C30.0984 17.5781 32.8952 25.8138 34.4858 30.4805L31.8631 29.5396C30.5863 29.0816 29.171 29.224 28.011 29.9271L21.7969 33.6938C20.6864 34.367 19.9208 35.4871 19.6969 36.7663L18.1185 45.7851C18.0251 46.3188 18.2317 46.9038 18.6984 47.2166C18.4624 47.364 18.2605 47.5298 18.0855 47.7005C17.6049 48.1692 17.6011 48.8732 17.8956 49.3794C19.5785 52.2713 22.7386 57.0197 24.1436 58.6285C25.066 59.6847 25.811 60.4462 26.6668 61.0172C27.5305 61.5935 28.4782 61.9574 29.7839 62.2695C30.7702 62.5054 32.7713 62.8535 34.8977 63.2234L35.2278 63.2808C37.4913 63.6748 39.8558 63.6003 41.3419 63.9378L41.3966 63.9502H67.1706V44.9502H58.1237L45.5288 10.6406C45.3048 10.024 44.6185 9.49893 43.8523 9.77035C43.0424 10.0573 42.4593 10.6031 42.0896 11.359C41.9772 11.589 41.8852 11.8368 41.8118 12.1008L39.9288 7.48761C39.6826 6.88465 38.9955 6.40118 38.2503 6.66725C36.8684 7.16068 36.2608 8.28778 35.999 9.45465C35.9211 9.80186 35.8717 10.1621 35.8407 10.5213ZM22.8395 46.9568C23.0993 47.0275 23.371 47.1117 23.6553 47.2103C26.0365 48.0365 27.0965 49.4342 27.9154 50.6532C27.973 50.739 28.029 50.8229 28.0837 50.905C28.8166 52.0039 29.3274 52.7699 30.4826 53.03C31.879 53.3444 33.9479 53.3624 35.7337 52.7079C37.4947 52.0624 38.7353 50.7157 39.0647 48.4164C39.7204 43.8399 36.1059 40.144 31.3747 38.6616C31.2809 38.6322 31.1744 38.6348 31.0717 38.6733L26.8602 40.2494C26.6722 40.3197 26.5261 40.5116 26.5071 40.7565C26.3425 42.8721 25.4697 44.7603 24.1484 46.0118C23.7503 46.3888 23.3111 46.7079 22.8395 46.9568Z" fill="#18293D"/>
<path d="M70 44.9492L61.8944 44.9498C61.8944 44.9498 61 52.0155 61 56.1515C61 60.2876 61.8944 66.9492 61.8944 66.9492L70 66.9486V44.9492Z" fill="#EF3124"/>
</svg>
