<svg width="80" height="80" viewBox="0 0 80 80" fill="none" xmlns="http://www.w3.org/2000/svg">
<path d="M72 40C72 57.6731 57.6731 72 40 72C22.3269 72 8 57.6731 8 40C8 22.3269 22.3269 8 40 8C57.6731 8 72 22.3269 72 40Z" fill="#E7ECF0"/>
<path d="M49.0701 21.1801C45.761 19.6657 42.1255 19.0039 38.4951 19.2551C34.8647 19.5063 31.3549 20.6624 28.286 22.618C25.217 24.5736 22.6865 27.2665 20.9253 30.451C19.1641 33.6355 18.2283 37.2103 18.2031 40.8493L29.1923 40.9253C29.2048 39.121 29.6688 37.3485 30.542 35.7696C31.4153 34.1906 32.67 32.8554 34.1916 31.8858C35.7133 30.9161 37.4535 30.3429 39.2536 30.2183C41.0536 30.0938 42.8562 30.4219 44.4969 31.1728L49.0701 21.1801Z" fill="#D6DDE2"/>
<path d="M58.441 29.3789C56.1571 25.7547 52.8559 22.8839 48.9498 21.125L44.4414 31.1373C46.3797 32.0101 48.0179 33.4347 49.1513 35.2331L58.441 29.3789Z" fill="#B4C6D2"/>
<path d="M59.8734 49.9527C61.3538 46.6663 61.9961 43.0639 61.7427 39.4683C61.4894 35.8727 60.3483 32.396 58.4216 29.3496L49.1504 35.2131C50.1074 36.7264 50.6743 38.4533 50.8001 40.2394C50.926 42.0254 50.6069 43.8148 49.8715 45.4473L48 49L59.8734 49.9527Z" fill="#D6DDE2"/>
<path fill-rule="evenodd" clip-rule="evenodd" d="M70.1541 45.6386C68.0321 43.8423 65.1991 43.1274 62.4789 43.7021L41.2358 48.1895L34.0282 45.1686C35.8311 44.8815 38.653 44.3011 40.8078 43.8414C42.7096 43.4356 44.2819 42.1156 45.0329 40.3219L45.391 39.4667C45.6668 38.8078 45.1883 38.0789 44.474 38.0738C40.9341 38.0484 32.0526 37.9271 28.1183 37.3464C20.5307 36.6773 18.3601 38.9916 15.9346 39.7923L9.99164 39.7916L9.99172 54.5031L16.7251 54.505C24.9773 55.9653 36.9917 59.077 40.5667 58.5685C41.9436 58.3731 44.2291 57.7951 45.6455 57.285C50.057 55.6963 65.1406 49.391 69.9619 47.3688C70.6499 47.0802 70.7823 46.1704 70.2128 45.6883L70.1541 45.6386Z" fill="white"/>
<path fill-rule="evenodd" clip-rule="evenodd" d="M44.478 37.5729C45.5501 37.5806 46.265 38.674 45.8526 39.6589L45.4945 40.5141C44.6812 42.4566 42.9771 43.889 40.9126 44.3295C39.349 44.6631 37.4268 45.0618 35.7953 45.366L41.2856 47.6672L62.376 43.212C65.2473 42.6054 68.2377 43.3599 70.4776 45.2561L70.5363 45.3058C71.3851 46.0244 71.1948 47.3932 70.1557 47.829C65.3427 49.8477 50.2425 56.1602 45.8153 57.7545C44.3696 58.2752 42.0509 58.862 40.6374 59.0626C39.6665 59.2007 38.182 59.0906 36.4257 58.8478C34.6524 58.6027 32.5457 58.2134 30.3022 57.7644C28.6593 57.4357 26.9448 57.0754 25.2294 56.7149C22.2601 56.091 19.2884 55.6677 16.6815 55.2053L8.99223 55.2041L8.99213 39.2041L15.8529 39.204C16.3431 39.0353 16.8282 38.8885 17.3945 38.6153C17.4547 38.5862 17.516 38.5567 17.5782 38.5268C18.2453 38.2057 19.0048 37.8507 19.9337 37.5427C21.8009 36.9235 24.3099 36.5077 28.1626 36.8474L28.1772 36.8487L28.1917 36.8508C32.0833 37.4253 40.9236 37.5474 44.478 37.5729ZM33.9612 44.6722C35.7499 44.3868 38.5524 43.8105 40.7039 43.3515C42.443 42.9804 43.8834 41.7727 44.5721 40.1279L44.9302 39.2727C45.0695 38.9399 44.8274 38.5754 44.4708 38.5729C40.9499 38.5477 32.0446 38.4274 28.0603 37.8423C24.3338 37.5153 21.9676 37.9218 20.2485 38.4918C19.3831 38.7788 18.6709 39.1107 18.0118 39.4279C17.9483 39.4584 17.885 39.489 17.822 39.5194C17.2395 39.8007 16.6735 39.9868 16.0917 40.1788L16.0154 40.204L9.99213 40.204L9.99222 54.2041L16.7694 54.2053L16.8126 54.213C19.443 54.6784 22.4629 55.1117 25.4616 55.7418C27.1729 56.1013 28.8773 56.4595 30.4984 56.7839C32.7369 57.2318 34.8199 57.6163 36.5626 57.8572C38.3222 58.1005 39.6801 58.1887 40.4967 58.0726C41.837 57.8823 44.0895 57.3132 45.4765 56.8137C49.8724 55.2306 64.9394 48.9325 69.7689 46.9068C70.1059 46.7655 70.1803 46.3147 69.8902 46.069L69.8314 46.0193C67.8274 44.3228 65.1517 43.6477 62.5826 44.1904L41.1869 48.7101L33.9553 45.6792L24.7439 46.7181C24.4695 46.7491 24.222 46.5517 24.1911 46.2773C24.1601 46.0029 24.3575 45.7554 24.6319 45.7244L33.9612 44.6722Z" fill="#B4C6D2"/>
<path d="M6 39L14.1056 39.0006C14.1056 39.0006 15 46.0663 15 50.2023C15 54.3383 14.1056 61 14.1056 61L6 60.9994L6 39Z" fill="#D6DDE2"/>
</svg>
