<svg width="80" height="80" viewBox="0 0 80 80" fill="none" xmlns="http://www.w3.org/2000/svg">
<path d="M72 40C72 57.6731 57.6731 72 40 72C22.3269 72 8 57.6731 8 40C8 22.3269 22.3269 8 40 8C57.6731 8 72 22.3269 72 40Z" fill="#E7ECF0"/>
<path fill-rule="evenodd" clip-rule="evenodd" d="M39.4081 56.9954C42.0826 60.3711 45.3266 64.4656 46.7716 65.6825C48.9359 67.505 53.8994 68.3028 55.608 68.3028L55.6754 68.3028C57.3265 68.3024 57.701 68.3023 58.7974 70.6944C60.1979 73.7503 66.7495 74.2723 70.6245 71.8973C74.4995 69.5223 76.2664 63.9979 73.2495 58.7723C70.1437 53.7969 66.6024 48.28 64.0373 45.4071C60.5968 41.5538 56.8238 38.2408 53.9486 35.9453L51.0006 38.0814L49.2274 36.7201C48.7667 36.3664 48.2153 36.1515 47.6349 36.1301C45.6742 36.0577 42.5631 36.1095 40.2778 36.1476C39.2837 36.1642 38.4459 36.1781 37.927 36.1781C35.5349 36.1781 35.5349 37.545 35.7627 38.2284C35.9906 38.9119 36.4462 40.051 37.927 41.0761C39.1116 41.8962 42.0656 42.1772 43.3945 42.2152L44.0581 43.1119L33.5898 50.697C34.5123 51.3421 35.3898 52.0715 36.1299 52.9325C36.887 53.8132 38.077 55.3153 39.4081 56.9954Z" fill="white"/>
<path fill-rule="evenodd" clip-rule="evenodd" d="M45.8844 25.534L38.948 10.4961L32.0117 25.534L15.5664 27.4838L27.7249 38.7276L24.5078 55.3516L38.9881 47.2785L47.8138 52.3245C47.4956 50.7586 47.4852 48.8706 47.6091 47.9105L43.3944 42.2152C42.0654 42.1772 39.1115 41.8962 37.9268 41.0761C36.446 40.051 35.9904 38.9119 35.7626 38.2284C35.5348 37.545 35.5348 36.1781 37.9268 36.1781C38.4457 36.1781 39.2836 36.1642 40.2777 36.1476C42.563 36.1095 45.6741 36.0577 47.6347 36.1301C48.2151 36.1515 48.7666 36.3664 49.2273 36.7201L50.9292 38.0267L62.3297 27.4838L45.8844 25.534Z" fill="#D6DDE2"/>
<path fill-rule="evenodd" clip-rule="evenodd" d="M52.1891 38.3634L57.7296 42.8964C57.941 43.0694 57.9768 43.379 57.8105 43.5956C57.6394 43.8184 57.3188 43.8586 57.0982 43.6848C54.0846 41.3117 52.1379 39.5686 49 37.5C48.6141 37.2037 48.0521 37.0166 47.5845 36.9993C44.8966 36.9001 42.1962 37.1409 39.5136 36.9875C38.3756 36.9225 36.6005 36.8573 36.122 37.6129C35.9663 37.8587 35.9827 38.1943 36.0742 38.4688C37.1591 41.7232 40.5445 41.9314 43.5161 42.0163L48.1309 47.7747C47.7303 50.8781 48.5352 55.2679 50.5354 57.7443C52.2503 59.8674 55.1972 62.6611 58.1613 63.0215C58.4354 63.0548 58.6537 63.2824 58.6464 63.5585V63.5585C58.6392 63.8345 58.4092 64.0543 58.1347 64.0244C54.8666 63.6683 51.6666 60.7363 49.7575 58.3726C48.6495 57.0008 47.8793 55.1058 47.4463 53.1405L38.948 48.3835L34.5621 50.8386C35.2061 51.3559 36.0431 52.065 36.5088 52.6067C37.2723 53.495 38.4739 55.0115 39.8101 56.698L39.8108 56.699C40.4806 57.5444 41.1842 58.4324 41.8835 59.3055C42.935 60.6185 43.9799 61.9016 44.8954 62.9687C45.8182 64.0444 46.5874 64.8741 47.0934 65.3002C49.6838 67.4816 53.6574 67.6756 56.8412 67.9694C57.1915 68.0017 57.5339 68.0786 57.857 68.2743C58.4085 68.6084 58.7959 69.2247 59.1857 70.1993C59.2883 70.4557 59.1532 70.7433 58.8936 70.8377C58.6341 70.932 58.3485 70.7971 58.245 70.5411C57.8794 69.6374 57.6023 69.2892 57.3389 69.1296C57.1922 69.0408 57.0148 68.9897 56.7493 68.9652C53.3404 68.6506 49.2153 68.3944 46.4493 66.0651C45.8732 65.58 45.0559 64.6916 44.1364 63.6199C43.2097 62.5396 42.1565 61.246 41.1029 59.9306C40.3917 59.0426 39.6817 58.1464 39.0095 57.2979L39.0084 57.2966L39.0055 57.2929C37.6796 55.6194 36.501 54.1317 35.7505 53.2586C35.2493 52.6756 34.2756 51.8834 33.6135 51.3696L24.4974 56.4724L24.4975 55.3301L38.948 47.2681L47.1615 51.8656C47.013 50.6668 46.9895 49.1045 47.0906 48.05L43 43C39.824 42.8602 36.2605 42.1899 35.1255 38.785C34.9892 38.376 34.8917 37.6864 35.2771 37.0779C36.0116 35.9182 37.9158 35.9512 39.3253 36.0004C42.0885 36.0969 44.856 35.8979 47.6214 36C48.9403 36.0487 50.1799 37.0664 51.3029 37.683L62.272 27.5391L62.3297 27.5408V28.9856L52.1891 38.3634ZM15.5664 28.9856V27.5408L15.6243 27.5391L27.725 38.7294C27.6422 39.1462 27.5591 39.5724 27.4766 39.9922L15.5664 28.9856Z" fill="#B4C6D2"/>
</svg>
