<svg width="80" height="80" viewBox="0 0 80 80" fill="none" xmlns="http://www.w3.org/2000/svg">
<path d="M72 40C72 57.6731 57.6731 72 40 72C22.3269 72 8 57.6731 8 40C8 22.3269 22.3269 8 40 8C57.6731 8 72 22.3269 72 40Z" fill="#E7ECF0"/>
<path fill-rule="evenodd" clip-rule="evenodd" d="M65.7569 40.9983V43.3127C65.7569 43.8081 65.3941 44.2289 64.9041 44.3018L62.9391 44.5942C62.5268 44.6555 62.1979 44.9667 62.0982 45.3715C61.8716 46.2914 61.5893 47.1894 61.2551 48.0618C61.0946 48.4809 61.2149 48.9591 61.5662 49.2383L62.8043 50.2218C63.1922 50.53 63.296 51.0757 63.0483 51.5048L60.573 55.7921C60.3253 56.2212 59.8007 56.4042 59.3399 56.2223L57.4863 55.4908C57.099 55.338 56.6591 55.4425 56.3704 55.7426C55.7191 56.4195 55.0266 57.0564 54.2968 57.6492C53.9489 57.9319 53.8143 58.4057 53.9789 58.8227L54.5615 60.2989C54.7433 60.7598 54.5603 61.2843 54.1313 61.532L49.8439 64.0073C49.4149 64.255 48.8691 64.1512 48.5609 63.7633L47.3255 62.2082C47.0665 61.8821 46.6331 61.7528 46.2331 61.8682C45.6393 62.0394 45.0357 62.1873 44.4232 62.3107C43.9987 62.3963 43.666 62.7327 43.6023 63.161L43.3428 64.9046C43.2699 65.3946 42.8492 65.7574 42.3537 65.7574H37.4032C36.9077 65.7574 36.487 65.3946 36.414 64.9046L36.1546 63.161C36.0909 62.7327 35.7582 62.3963 35.3337 62.3107C34.7212 62.1873 34.1175 62.0394 33.5237 61.8681C33.1236 61.7527 32.6903 61.882 32.4312 62.2081L31.196 63.7631C30.8878 64.151 30.342 64.2548 29.913 64.0071L25.6256 61.5318C25.1966 61.2841 25.0136 60.7595 25.1954 60.2987L25.7779 58.8226C25.9425 58.4056 25.808 57.9318 25.46 57.6491C24.7303 57.0563 24.0378 56.4194 23.3865 55.7425C23.0979 55.4425 22.658 55.3379 22.2707 55.4908L20.417 56.2223C19.9562 56.4042 19.4317 56.2212 19.1839 55.7921L16.7086 51.5048C16.4609 51.0757 16.5647 50.53 16.9526 50.2218L18.1907 49.2382C18.5421 48.9591 18.6623 48.4809 18.5018 48.0618C18.1677 47.1894 17.8854 46.2914 17.6588 45.3715C17.559 44.9667 17.2301 44.6555 16.8178 44.5942L14.8528 44.3018C14.3628 44.2288 14 43.8081 14 43.3127V38.3621C14 37.8666 14.3628 37.4459 14.8528 37.373L16.4197 37.1398C16.8638 37.0737 17.2072 36.7192 17.2774 36.2757C17.4256 35.3384 17.6307 34.4201 17.8891 33.5244C18.0045 33.1243 17.8752 32.6909 17.5491 32.4319L15.9942 31.1967C15.6063 30.8885 15.5025 30.3427 15.7502 29.9137L18.2255 25.6263C18.4732 25.1973 18.9977 25.0143 19.4586 25.1961L20.9345 25.7786C21.3515 25.9432 21.8253 25.8086 22.108 25.4607C22.7009 24.7308 23.3379 24.0381 24.0149 23.3868C24.3149 23.0981 24.4195 22.6582 24.2667 22.2709L23.5353 20.4176C23.3534 19.9568 23.5364 19.4322 23.9655 19.1845L28.2528 16.7092C28.6819 16.4615 29.2276 16.5653 29.5358 16.9532L30.5192 18.1911C30.7983 18.5424 31.2765 18.6627 31.6956 18.5021C32.8652 18.0542 34.0809 17.6994 35.3337 17.447C35.4296 17.4276 35.5209 17.3955 35.6054 17.3524L38.0454 29.1727C32.9027 30.095 29 34.5915 29 39.9996C29 46.0747 33.9249 50.9996 40 50.9996C45.7385 50.9996 50.4506 46.6054 50.9553 40.9983L65.7569 40.9983Z" fill="#EF3124"/>
<path fill-rule="evenodd" clip-rule="evenodd" d="M65.4996 40.6006C65.7758 40.6006 65.9996 40.8244 65.9996 41.1006V43.3845C65.9996 44.1228 65.459 44.7498 64.7288 44.8585L64.7174 44.8602L62.8315 45.053C62.6366 45.0859 62.4716 45.2372 62.4201 45.4462C62.1907 46.3774 61.9049 47.2864 61.5667 48.1694C61.4823 48.3898 61.5493 48.6294 61.7188 48.764L62.9447 49.7379C63.5228 50.1971 63.6775 51.0104 63.3083 51.6498L60.8573 55.8951C60.4881 56.5345 59.7065 56.8072 59.0197 56.5361L57.1843 55.8118C56.9973 55.738 56.7746 55.7854 56.6232 55.9427C55.9642 56.6276 55.2634 57.2721 54.5249 57.8721C54.342 58.0206 54.2806 58.2613 54.3599 58.4624L54.9368 59.9242C55.2078 60.6109 54.9351 61.3926 54.2957 61.7617L50.0504 64.2128C49.411 64.5819 48.5977 64.4272 48.1385 63.8491L46.9152 62.3092C46.7902 62.1519 46.5735 62.0814 46.3635 62.142C45.7625 62.3154 45.1515 62.465 44.5316 62.59C44.3086 62.6349 44.1453 62.8087 44.1145 63.0154L43.8576 64.7418C43.7489 65.4721 43.1219 66.0127 42.3836 66.0127H37.4816C36.7433 66.0127 36.1163 65.4721 36.0076 64.7418L35.7507 63.0153C35.72 62.8087 35.5567 62.6349 35.3337 62.5899C34.7137 62.465 34.1026 62.3153 33.5016 62.1419C33.2916 62.0814 33.075 62.1518 32.9499 62.3092L31.7267 63.8489C31.2675 64.427 30.4542 64.5817 29.8148 64.2125L25.5695 61.7615C24.9301 61.3923 24.6574 60.6107 24.9285 59.9239L25.5053 58.4623C25.6066 58.2055 25.897 58.0794 26.1539 58.1808C26.4108 58.2821 26.5368 58.5725 26.4354 58.8294L25.8586 60.291C25.7695 60.5169 25.8592 60.774 26.0695 60.8955L30.3148 63.3465C30.5251 63.4679 30.7927 63.417 30.9437 63.2269L32.1669 61.6872C32.5548 61.1989 33.1964 61.0131 33.7788 61.1811C34.3536 61.347 34.9381 61.4901 35.5312 61.6096C36.1489 61.7341 36.6444 62.2266 36.7398 62.8682L36.9967 64.5946C37.0325 64.8348 37.2387 65.0127 37.4816 65.0127H42.3836C42.6265 65.0127 42.8328 64.8348 42.8685 64.5946L43.1254 62.8682C43.2209 62.2266 43.7163 61.7341 44.334 61.6097C44.9271 61.4902 45.5115 61.347 46.0864 61.1812C46.6687 61.0132 47.3103 61.1989 47.6982 61.6872L48.9215 63.2271C49.0726 63.4173 49.3401 63.4682 49.5504 63.3467L53.7957 60.8957C54.0061 60.7743 54.0958 60.5172 54.0066 60.2912L53.4298 58.8295C53.1832 58.2048 53.3882 57.5071 53.8944 57.0959C54.6011 56.5217 55.2719 55.9049 55.9026 55.2494C56.3229 54.8125 56.9714 54.6528 57.5514 54.8816L59.3868 55.6059C59.6127 55.6951 59.8698 55.6054 59.9913 55.3951L62.4423 51.1498C62.5637 50.9395 62.5128 50.6719 62.3227 50.5209L61.0968 49.547C60.5704 49.1288 60.3994 48.4212 60.6329 47.8117C60.9564 46.9671 61.2297 46.0977 61.4491 45.207C61.5942 44.6178 62.0762 44.1543 62.6937 44.0624L62.705 44.0607L64.591 43.8679C64.8264 43.8282 64.9996 43.6242 64.9996 43.3845V41.1006C64.9996 40.8244 65.2235 40.6006 65.4996 40.6006Z" fill="#18293D"/>
<path d="M34.5 49.5298C31.2121 47.6279 29 44.073 29 40.0014C29 34.5834 32.9171 30.0803 38.0738 29.1695L35.6125 17.8203" stroke="#18293D" stroke-linecap="round"/>
</svg>
