<svg width="80" height="80" viewBox="0 0 80 80" fill="none" xmlns="http://www.w3.org/2000/svg">
<path d="M72 40C72 57.6731 57.6731 72 40 72C22.3269 72 8 57.6731 8 40C8 22.3269 22.3269 8 40 8C57.6731 8 72 22.3269 72 40Z" fill="#E7ECF0"/>
<path d="M49.0701 21.1801C45.761 19.6657 42.1255 19.0039 38.4951 19.2551C34.8647 19.5063 31.3549 20.6624 28.286 22.618C25.217 24.5736 22.6865 27.2665 20.9253 30.451C19.1641 33.6355 18.2283 37.2103 18.2031 40.8493L29.1923 40.9253C29.2048 39.121 29.6688 37.3485 30.542 35.7696C31.4153 34.1906 32.67 32.8554 34.1916 31.8858C35.7133 30.9161 37.4535 30.3429 39.2536 30.2183C41.0536 30.0938 42.8562 30.4219 44.4969 31.1728L49.0701 21.1801Z" fill="#EF3124"/>
<path d="M58.441 29.3789C56.1571 25.7547 52.8559 22.8839 48.9498 21.125L44.4414 31.1373C46.3797 32.0101 48.0179 33.4347 49.1513 35.2331L58.441 29.3789Z" fill="#18293D"/>
<path d="M59.8734 49.9527C61.3538 46.6663 61.9961 43.0639 61.7427 39.4683C61.4894 35.8727 60.3483 32.396 58.4216 29.3496L49.1504 35.2131C50.1074 36.7264 50.6743 38.4533 50.8001 40.2394C50.926 42.0254 50.6069 43.8148 49.8715 45.4473L49 47.5L59.8734 49.9527Z" fill="#B4C6D2"/>
<path fill-rule="evenodd" clip-rule="evenodd" d="M70.1541 45.6386C68.0321 43.8423 65.1991 43.1274 62.4789 43.7021L41.2358 48.1895L34.0282 45.1686C35.8311 44.8815 38.653 44.3011 40.8078 43.8414C42.7096 43.4356 44.2819 42.1156 45.0329 40.3219L45.391 39.4667C45.6668 38.8078 45.1883 38.0789 44.474 38.0738C40.9341 38.0484 32.0526 37.9271 28.1183 37.3464C20.5307 36.6773 18.3601 38.9916 15.9346 39.7923L9.99164 39.7916L9.99172 54.5031L16.7251 54.505C24.9773 55.9653 36.9917 59.077 40.5667 58.5685C41.9436 58.3731 44.2291 57.7951 45.6455 57.285C50.057 55.6963 65.1406 49.391 69.9619 47.3688C70.6499 47.0802 70.7823 46.1704 70.2128 45.6883L70.1541 45.6386Z" fill="white"/>
<path fill-rule="evenodd" clip-rule="evenodd" d="M44.478 37.3727C45.5501 37.3804 46.265 38.4738 45.8526 39.4587L45.4945 40.3139C44.6812 42.2564 42.9771 43.6888 40.9126 44.1293C39.349 44.4629 37.4268 44.8616 35.7953 45.1658L41.2856 47.467L62.376 43.0118C65.2473 42.4052 68.2377 43.1597 70.4776 45.0559L70.5363 45.1056C71.3851 45.8242 71.1948 47.193 70.1557 47.6288C65.3427 49.6475 50.2425 55.96 45.8153 57.5543C44.3696 58.075 42.0509 58.6618 40.6374 58.8624C39.6665 59.0005 38.182 58.8904 36.4257 58.6476C34.6524 58.4025 32.5457 58.0132 30.3022 57.5642C28.6593 57.2355 26.9448 56.8752 25.2294 56.5147C22.2601 55.8908 19.2884 55.4675 16.6815 55.0051L8.99223 55.0039L8.99213 39.0039L15.8529 39.0038C16.3431 38.8351 16.8282 38.6884 17.3945 38.4151C17.4547 38.386 17.516 38.3565 17.5782 38.3266C18.2453 38.0055 19.0048 37.6505 19.9337 37.3425C21.8009 36.7233 24.3099 36.3075 28.1626 36.6472L28.1772 36.6485L28.1917 36.6507C32.0833 37.2251 40.9236 37.3473 44.478 37.3727ZM33.9612 44.472C35.7499 44.1866 38.5524 43.6103 40.7039 43.1513C42.443 42.7802 43.8834 41.5726 44.5721 39.9277L44.9302 39.0725C45.0695 38.7397 44.8274 38.3752 44.4708 38.3727C40.9499 38.3475 32.0446 38.2272 28.0603 37.6421C24.3338 37.3151 21.9676 37.7216 20.2485 38.2917C19.3831 38.5786 18.6709 38.9105 18.0118 39.2277C17.9483 39.2582 17.885 39.2888 17.822 39.3192C17.2395 39.6005 16.6735 39.7866 16.0917 39.9786L16.0154 40.0038L9.99213 40.0038L9.99222 54.0039L16.7694 54.0051L16.8126 54.0128C19.443 54.4782 22.4629 54.9115 25.4616 55.5416C27.1729 55.9011 28.8773 56.2593 30.4984 56.5837C32.7369 57.0316 34.8199 57.4161 36.5626 57.657C38.3222 57.9003 39.6801 57.9885 40.4967 57.8724C41.837 57.6821 44.0895 57.113 45.4765 56.6135C49.8724 55.0304 64.9394 48.7323 69.7689 46.7066C70.1059 46.5653 70.1803 46.1145 69.8902 45.8689L69.8314 45.8191C67.8274 44.1226 65.1517 43.4475 62.5826 43.9902L41.1869 48.5099L33.9553 45.479L24.7439 46.5179C24.4695 46.5489 24.222 46.3515 24.1911 46.0771C24.1601 45.8027 24.3575 45.5552 24.6319 45.5242L33.9612 44.472Z" fill="#18293D"/>
<path d="M6 39L14.1056 39.0006C14.1056 39.0006 15 46.0663 15 50.2023C15 54.3383 14.1056 61 14.1056 61L6 60.9994L6 39Z" fill="#18293D"/>
</svg>
