<svg width="80" height="81" viewBox="0 0 80 81" fill="none" xmlns="http://www.w3.org/2000/svg">
<path d="M72 40.2998C72 57.9729 57.6731 72.2998 40 72.2998C22.3269 72.2998 8 57.9729 8 40.2998C8 22.6267 22.3269 8.2998 40 8.2998C57.6731 8.2998 72 22.6267 72 40.2998Z" fill="#E7ECF0"/>
<path fill-rule="evenodd" clip-rule="evenodd" d="M40.9224 15.3865C40.5808 14.5652 39.4174 14.5652 39.0758 15.3865L32.9604 30.0896C32.8164 30.4358 32.4908 30.6724 32.117 30.7024L16.2438 31.9749C15.3571 32.046 14.9976 33.1525 15.6731 33.7312L27.7669 44.0907C27.8034 44.1221 27.8373 44.1557 27.8685 44.1912L35.3418 34.2416L41.272 38.108L47.006 30.0132L40.9224 15.3865ZM59.6591 31.6466L41.272 47.1075L35.3418 42.108L26.1049 53.4001L24.3942 60.5718C24.1878 61.437 25.129 62.1209 25.8881 61.6572L39.4778 53.3567C39.7979 53.1612 40.2003 53.1612 40.5204 53.3567L54.1101 61.6572C54.8692 62.1209 55.8104 61.437 55.604 60.5718L51.9092 45.0822C51.8222 44.7175 51.9466 44.3347 52.2313 44.0907L64.3251 33.7312C65.0006 33.1525 64.6411 32.046 63.7544 31.9749L59.6591 31.6466Z" fill="#D6DDE2"/>
<path fill-rule="evenodd" clip-rule="evenodd" d="M64.5734 33.5175C64.7531 33.7272 64.7287 34.0429 64.519 34.2225L52.558 44.4684C52.4156 44.5904 52.3534 44.7818 52.3969 44.9641L56.0917 60.4537C56.4013 61.7516 54.9894 62.7773 53.8508 62.0819L40.2611 53.7813C40.1011 53.6836 39.8998 53.6836 39.7398 53.7813L25.8603 62.2589C25.6246 62.4028 25.3169 62.3285 25.173 62.0928C25.029 61.8571 25.1034 61.5494 25.3391 61.4055L39.2186 52.9279C39.6986 52.6347 40.3023 52.6347 40.7823 52.9279L54.372 61.2285C54.7516 61.4603 55.2222 61.1184 55.119 60.6858L51.4242 45.1962C51.2937 44.649 51.4802 44.0749 51.9074 43.7089L63.8684 33.4631C64.0781 33.2834 64.3938 33.3078 64.5734 33.5175Z" fill="#B4C6D2"/>
</svg>
