<svg width="80" height="80" viewBox="0 0 80 80" fill="none" xmlns="http://www.w3.org/2000/svg">
<path d="M72 40C72 57.6731 57.6731 72 40 72C22.3269 72 8 57.6731 8 40C8 22.3269 22.3269 8 40 8C57.6731 8 72 22.3269 72 40Z" fill="#E7ECF0"/>
<path d="M24.1127 22C21.289 22 19 24.289 19 27.1127V50.8873C19 53.711 21.289 56 24.1127 56H33.5809L39.4445 61.8635C39.7516 62.1707 40.2497 62.1707 40.5568 61.8635L46.4204 56H55.8873C58.711 56 61 53.711 61 50.8873V27.1127C61 24.289 58.711 22 55.8873 22H24.1127Z" fill="#D6DDE2"/>
<path fill-rule="evenodd" clip-rule="evenodd" d="M54.5025 21.3984C54.5025 21.1223 54.7263 20.8984 55.0025 20.8984H55.5C58.5376 20.8984 61 23.3609 61 26.3984V51.6328C61 54.541 58.6425 57 55.7344 57H46.7452L40.8719 62.6368C40.3904 63.1184 39.6095 63.1184 39.128 62.6368L33.2546 57H24C23.7239 57 23.5 56.7761 23.5 56.5C23.5 56.2239 23.7239 56 24 56H33.6688L39.8351 61.9297C39.9261 62.0207 40.0738 62.0207 40.1648 61.9297L46.331 56H55.7344C58.0902 56 60 53.9887 60 51.6328V26.3984C60 23.9132 57.9853 21.8984 55.5 21.8984H55.0025C54.7263 21.8984 54.5025 21.6746 54.5025 21.3984Z" fill="#B4C6D2"/>
<path d="M32 34.8984H35.9872C36.1229 32.7946 37.5183 31.3597 39.707 31.3597C41.8449 31.3597 42.9872 32.6661 42.9872 34.4646C42.9872 36.1443 42.2746 37.0605 40.1707 38.333C37.8293 39.7073 36.8452 41.2343 36.9979 43.7454L37.0149 44.95H40.9512V43.9659C40.9512 42.2693 41.5789 41.387 43.8016 40.0975C46.1091 38.7232 47.3985 36.9078 47.3985 34.3119C47.3985 30.5792 44.5765 27.8984 39.9276 27.8984C34.8885 27.8984 32.1357 30.9113 32 34.8984ZM39.4872 52.6997C40.8615 52.6997 41.9474 51.6308 41.9474 50.2904C41.9474 48.95 40.8615 47.8981 39.4872 47.8981C38.1129 47.8981 37.0101 48.95 37.0101 50.2904C37.0101 51.6308 38.1129 52.6997 39.4872 52.6997Z" fill="white"/>
</svg>
