<svg width="80" height="80" viewBox="0 0 80 80" fill="none" xmlns="http://www.w3.org/2000/svg">
<path d="M72 40C72 57.6731 57.6731 72 40 72C22.3269 72 8 57.6731 8 40C8 22.3269 22.3269 8 40 8C57.6731 8 72 22.3269 72 40Z" fill="#E7ECF0"/>
<path fill-rule="evenodd" clip-rule="evenodd" d="M36.414 14.7981C36.487 14.3081 36.9077 13.9453 37.4032 13.9453H42.3537C42.8492 13.9453 43.2699 14.3081 43.3428 14.7981L43.6023 16.5415C43.666 16.9698 43.9987 17.3063 44.4232 17.3918C45.6759 17.6442 46.8916 17.999 48.0612 18.4469C48.4802 18.6074 48.9585 18.4872 49.2376 18.1358L50.2211 16.8978C50.5292 16.5099 51.075 16.4061 51.5041 16.6538L55.7914 19.1291C56.2205 19.3768 56.4035 19.9014 56.2216 20.3622L55.4902 22.2156C55.3373 22.6029 55.4419 23.0428 55.7419 23.3315C56.419 23.9829 57.056 24.6756 57.6489 25.4055C57.9316 25.7534 58.4054 25.888 58.8224 25.7234L60.2983 25.141C60.7592 24.9591 61.2837 25.1421 61.5314 25.5712L64.0067 29.8585C64.2544 30.2876 64.1506 30.8333 63.7627 31.1415L62.2078 32.3767C61.8818 32.6357 61.7524 33.0691 61.8678 33.4692C62.1262 34.3649 62.3314 35.2833 62.4796 36.2206C62.5498 36.6641 62.8931 37.0186 63.3373 37.0847L64.9041 37.3178C65.3941 37.3907 65.7569 37.8115 65.7569 38.3069V43.2575C65.7569 43.7529 65.3941 44.1737 64.9041 44.2466L62.9391 44.539C62.5268 44.6004 62.1979 44.9116 62.0982 45.3163C61.8716 46.2362 61.5893 47.1343 61.2551 48.0067C61.0946 48.4257 61.2149 48.904 61.5662 49.1831L62.8043 50.1666C63.1922 50.4748 63.296 51.0206 63.0483 51.4496L60.573 55.7369C60.3253 56.166 59.8007 56.349 59.3399 56.1671L57.4863 55.4356C57.099 55.2828 56.6591 55.3874 56.3704 55.6874C55.7192 56.3643 55.0266 57.0012 54.2968 57.594C53.9489 57.8767 53.8143 58.3505 53.9789 58.7675L54.5615 60.2438C54.7433 60.7046 54.5603 61.2291 54.1313 61.4769L49.8439 63.9522C49.4149 64.1999 48.8691 64.0961 48.5609 63.7081L47.3255 62.153C47.0665 61.827 46.6331 61.6976 46.2331 61.813C45.6393 61.9843 45.0357 62.1322 44.4232 62.2556C43.9987 62.3411 43.666 62.6776 43.6023 63.1059L43.3428 64.8494C43.2699 65.3394 42.8492 65.7022 42.3537 65.7022H37.4032C36.9077 65.7022 36.487 65.3394 36.414 64.8494L36.1546 63.1059C36.0909 62.6775 35.7582 62.3411 35.3337 62.2556C34.7212 62.1321 34.1175 61.9842 33.5237 61.813C33.1236 61.6975 32.6903 61.8269 32.4312 62.1529L31.196 63.7079C30.8878 64.0958 30.342 64.1996 29.913 63.9519L25.6256 61.4766C25.1966 61.2289 25.0136 60.7044 25.1954 60.2435L25.7779 58.7674C25.9425 58.3504 25.808 57.8766 25.46 57.5939C24.7303 57.0011 24.0378 56.3643 23.3865 55.6874C23.0979 55.3874 22.658 55.2828 22.2707 55.4356L20.417 56.1671C19.9562 56.349 19.4317 56.166 19.1839 55.7369L16.7086 51.4496C16.4609 51.0206 16.5647 50.4748 16.9526 50.1666L18.1907 49.1831C18.5421 48.9039 18.6623 48.4257 18.5018 48.0066C18.1677 47.1343 17.8854 46.2362 17.6588 45.3163C17.559 44.9116 17.2301 44.6004 16.8178 44.539L14.8528 44.2466C14.3628 44.1737 14 43.7529 14 43.2575L14 38.3069C14 37.8115 14.3628 37.3907 14.8528 37.3178L16.4197 37.0847C16.8638 37.0186 17.2072 36.6641 17.2774 36.2205C17.4256 35.2833 17.6307 34.365 17.8891 33.4692C18.0045 33.0691 17.8752 32.6358 17.5491 32.3768L15.9942 31.1415C15.6063 30.8333 15.5025 30.2876 15.7502 29.8585L18.2255 25.5712C18.4732 25.1421 18.9977 24.9591 19.4586 25.141L20.9345 25.7234C21.3515 25.888 21.8253 25.7535 22.108 25.4055C22.7009 24.6756 23.3379 23.983 24.0149 23.3316C24.3149 23.043 24.4195 22.603 24.2667 22.2158L23.5353 20.3625C23.3534 19.9016 23.5364 19.3771 23.9655 19.1294L28.2528 16.6541C28.6819 16.4064 29.2276 16.5102 29.5358 16.8981L30.5192 18.1359C30.7983 18.4873 31.2765 18.6075 31.6956 18.447C32.8652 17.999 34.0809 17.6442 35.3337 17.3918C35.7582 17.3063 36.0909 16.9698 36.1546 16.5415L36.414 14.7981Z" fill="white"/>
<path fill-rule="evenodd" clip-rule="evenodd" d="M51.0706 16.1954C51.2087 15.9562 51.5145 15.8743 51.7537 16.0124L56.041 18.4877C56.6846 18.8593 56.9591 19.6461 56.6863 20.3373L55.9548 22.1907C55.8796 22.3815 55.928 22.6086 56.0882 22.7628C56.7799 23.4283 57.4308 24.136 58.0366 24.8818C58.1879 25.0681 58.4332 25.1309 58.6385 25.0499L60.1144 24.4675C60.8056 24.1947 61.5924 24.4691 61.964 25.1127L64.4393 29.4001C64.8109 30.0437 64.6552 30.8623 64.0733 31.3246L62.5184 32.5598C62.3578 32.6874 62.2861 32.9083 62.3478 33.1222C62.6119 34.0377 62.8216 34.9762 62.9731 35.934C63.0106 36.1716 63.1919 36.3492 63.4105 36.3817L64.7204 36.5925C65.4554 36.7019 65.9996 37.333 65.9996 38.0762V43.0268C65.9996 43.7699 65.4554 44.401 64.7204 44.5104L63.0123 44.8251C62.8093 44.8554 62.6366 45.0111 62.5833 45.2275C62.3517 46.1677 62.0632 47.0855 61.7217 47.9771C61.6357 48.2016 61.7039 48.4458 61.8768 48.5832L63.1149 49.5667C63.6967 50.0289 63.8524 50.8476 63.4809 51.4912L61.0056 55.7785C60.634 56.4221 59.8472 56.6966 59.1559 56.4238L57.3023 55.6923C57.1115 55.617 56.8845 55.6654 56.7303 55.8256C56.0649 56.5172 55.3573 57.168 54.6117 57.7737C54.4254 57.925 54.3626 58.1703 54.4436 58.3756L55.0261 59.8518C55.2989 60.543 55.0244 61.3299 54.3809 61.7014L50.0935 64.1767C49.4499 64.5483 48.6313 64.3926 48.169 63.8107L46.9336 62.2556C46.806 62.095 46.5851 62.0233 46.3712 62.085C45.7644 62.26 45.1475 62.4112 44.5215 62.5373C44.2944 62.5831 44.1278 62.7602 44.0964 62.971L43.837 64.7146C43.7276 65.4496 43.0965 65.9938 42.3533 65.9938H37.4027C36.6596 65.9938 36.0285 65.4496 35.9191 64.7146L35.6596 62.971C35.6282 62.7602 35.4617 62.583 35.2345 62.5373C34.6085 62.4111 33.9916 62.26 33.3847 62.0849C33.1708 62.0232 32.9499 62.0949 32.8223 62.2555L31.587 63.8105C31.1248 64.3924 30.3061 64.5481 29.6625 64.1765L25.3752 61.7012C24.7316 61.3296 24.4571 60.5428 24.7299 59.8515L25.3124 58.3755C25.4138 58.1186 25.7042 57.9925 25.9611 58.0939C26.2179 58.1953 26.344 58.4857 26.2426 58.7425L25.6601 60.2186C25.5692 60.449 25.6607 60.7113 25.8752 60.8352L30.1625 63.3105C30.3771 63.4343 30.6499 63.3824 30.804 63.1885L32.0393 61.6335C32.4298 61.142 33.0756 60.955 33.6619 61.1241C34.2426 61.2916 34.833 61.4363 35.4321 61.557C36.0539 61.6823 36.5526 62.1781 36.6487 62.8238L36.9082 64.5674C36.9446 64.8124 37.155 64.9938 37.4027 64.9938H42.3533C42.601 64.9938 42.8114 64.8124 42.8479 64.5674L43.1073 62.8238C43.2034 62.1781 43.7021 61.6823 44.324 61.557C44.923 61.4363 45.5134 61.2917 46.0941 61.1242C46.6804 60.955 47.3261 61.142 47.7166 61.6335L48.952 63.1887C49.1061 63.3827 49.379 63.4346 49.5935 63.3107L53.8809 60.8354C54.0954 60.7116 54.1869 60.4493 54.0959 60.2189L53.5134 58.7427C53.2653 58.1139 53.4715 57.4115 53.9811 56.9975C54.6951 56.4176 55.3726 55.7945 56.0097 55.1323C56.4328 54.6925 57.0856 54.5317 57.6694 54.7621L59.523 55.4936C59.7534 55.5845 60.0157 55.493 60.1395 55.2785L62.6148 50.9912C62.7387 50.7767 62.6868 50.5038 62.4928 50.3497L61.2548 49.3662C60.725 48.9453 60.5528 48.233 60.7878 47.6194C61.1146 46.7662 61.3907 45.888 61.6123 44.9883C61.7584 44.3951 62.2436 43.9285 62.8651 43.836L64.5732 43.5213C64.8182 43.4849 64.9996 43.2745 64.9996 43.0268V38.0762C64.9996 37.8285 64.8182 37.6181 64.5732 37.5816L63.2633 37.3708C62.5935 37.2711 62.0881 36.7397 61.9853 36.0902C61.8404 35.1735 61.6397 34.2754 61.387 33.3993C61.2179 32.813 61.4049 32.1672 61.8964 31.7768L63.4513 30.5416C63.6453 30.3875 63.6971 30.1146 63.5733 29.9001L61.098 25.6127C60.9741 25.3982 60.7119 25.3067 60.4814 25.3976L59.0056 25.9801C58.3768 26.2282 57.6744 26.0219 57.2604 25.5123C56.6804 24.7983 56.0572 24.1206 55.3949 23.4834C54.955 23.0602 54.7943 22.4074 55.0247 21.8237L55.7561 19.9703C55.847 19.7398 55.7555 19.4776 55.541 19.3537L51.2537 16.8784C51.0145 16.7403 50.9326 16.4345 51.0706 16.1954Z" fill="#B4C6D2"/>
<path d="M56 39.9453C56 48.7819 48.8366 55.9453 40 55.9453C31.1634 55.9453 24 48.7819 24 39.9453C24 31.1088 31.1634 23.9453 40 23.9453C48.8366 23.9453 56 31.1088 56 39.9453Z" fill="#D6DDE2"/>
<path fill-rule="evenodd" clip-rule="evenodd" d="M47.8733 36.6058L39.8034 45.4209C39.2554 46.0195 38.3307 46.0737 37.7166 45.5432L32.2539 40.8252L34.2148 38.5548L38.5746 42.3203L45.6605 34.5801L47.8733 36.6058Z" fill="white"/>
</svg>
